<?xml version="1.0" encoding="UTF-8" standalone="no"?>
<!-- Created with Inkscape (http://www.inkscape.org/) -->

<svg
   width="100"
   height="100"
   viewBox="0 0 26.458333 26.458334"
   version="1.1"
   id="svg5"
   inkscape:version="1.1.2 (0a00cf5339, 2022-02-04)"
   sodipodi:docname="rock.svg"
   xmlns:inkscape="http://www.inkscape.org/namespaces/inkscape"
   xmlns:sodipodi="http://sodipodi.sourceforge.net/DTD/sodipodi-0.dtd"
   xmlns="http://www.w3.org/2000/svg"
   xmlns:svg="http://www.w3.org/2000/svg">
  <sodipodi:namedview
     id="namedview7"
     pagecolor="#ffffff"
     bordercolor="#666666"
     borderopacity="1.0"
     inkscape:pageshadow="2"
     inkscape:pageopacity="0.0"
     inkscape:pagecheckerboard="0"
     inkscape:document-units="mm"
     showgrid="false"
     units="px"
     width="100px"
     inkscape:zoom="15.763323"
     inkscape:cx="66.622689"
     inkscape:cy="79.816447"
     inkscape:window-width="1920"
     inkscape:window-height="1016"
     inkscape:window-x="0"
     inkscape:window-y="0"
     inkscape:window-maximized="1"
     inkscape:current-layer="layer1"
     inkscape:snap-nodes="false"
     inkscape:snap-global="false" />
  <defs
     id="defs2" />
  <g
     inkscape:label="Layer 1"
     inkscape:groupmode="layer"
     id="layer1">
    <path
       style="fill:none;stroke:#0fff50;stroke-width:1.32291667;stroke-linecap:butt;stroke-linejoin:miter;stroke-miterlimit:4;stroke-dasharray:none;stroke-opacity:1"
       d="M 19.699662,5.9029627 13.460113,3.9815467 8.8921821,5.0708622 c 0,0 -2.9445269,2.7334881 -2.7635308,4.0685211 0.1809962,1.3350317 -2.820463,4.5339927 -2.820463,4.5339927 l -0.7844407,4.206864 4.1197046,3.127378 c 0,0 4.2016728,0.741788 5.5995728,-0.684856 1.397899,-1.426643 4.218176,0.420408 4.218176,0.420408 l 4.37488,-0.768306 2.553975,-5.779455 -0.864368,-5.6615104 z"
       id="path53" />
    <path
       style="fill:none;stroke:#0fff50;stroke-width:1.217;stroke-linecap:butt;stroke-linejoin:miter;stroke-miterlimit:4;stroke-dasharray:none;stroke-opacity:1"
       d="M 18.219481,8.0992971 13.670264,6.8219348 10.339812,7.5461144 c 0,0 -2.1468358,1.8172289 -2.014873,2.7047636 0.1319633,0.88753 -2.0563818,3.014207 -2.0563818,3.014207 l -0.9383112,3.29713 3.0047013,1.821021 c 0,0 3.4287437,0.250815 4.4479417,-0.697621 1.019202,-0.948439 3.075449,0.279486 3.075449,0.279486 l 3.1897,-0.510772 1.862087,-3.842195 -0.630208,-3.7637852 z"
       id="path53-3"
       sodipodi:nodetypes="cccscccsccccc" />
    <path
       style="fill:none;stroke:#0fff50;stroke-width:1.124;stroke-linecap:butt;stroke-linejoin:miter;stroke-miterlimit:4;stroke-dasharray:none;stroke-opacity:1"
       d="m 16.980248,9.9859708 -2.971882,-0.745237 -2.175695,0.4224996 c 0,0 -1.40247,1.0602066 -1.316263,1.5780096 0.08621,0.517803 -1.3433785,1.758547 -1.3433785,1.758547 l -0.8270781,2.125508 1.9443736,0.965138 c 0,0 2.472526,0.04171 3.138342,-0.511624 0.665818,-0.553338 2.009109,0.163055 2.009109,0.163055 l 2.083745,-0.297992 1.216453,-2.241611 -0.411698,-2.195864 z"
       id="path53-3-2"
       sodipodi:nodetypes="cccscccsccccc" />
    <path
       style="fill:none;stroke:#0fff50;stroke-width:0.902;stroke-linecap:butt;stroke-linejoin:miter;stroke-miterlimit:4;stroke-dasharray:none;stroke-opacity:1"
       d="m 15.876329,11.537474 -1.708266,-0.295998 -1.250605,0.167814 c 0,0 -0.806152,0.421094 -0.756601,0.626759 0.04955,0.205662 -0.66917,0.765688 -0.66917,0.765688 l -0.671044,1.220503 1.036627,0.235249 c 0,0 1.594864,-0.278846 1.977579,-0.498606 0.382719,-0.219779 1.154855,0.06479 1.154855,0.06479 l 1.197752,-0.118366 0.699228,-0.890333 -0.236647,-0.87216 z"
       id="path53-3-2-9-1-2"
       sodipodi:nodetypes="cccsccccccccc" />
    <path
       style="fill:#0fff50;fill-opacity:1;stroke:#0fff50;stroke-width:0.174;stroke-linecap:butt;stroke-linejoin:miter;stroke-miterlimit:4;stroke-dasharray:none;stroke-opacity:1"
       d="m 14.735203,12.289426 -0.606851,-0.06107 -0.44427,0.03462 c 0,0 -0.28638,0.08688 -0.268778,0.129309 0.0176,0.04242 -0.274315,0.1441 -0.274315,0.1441 l -0.499056,0.586893 0.800628,-0.157102 c 0,0 0.431465,-0.173126 0.567421,-0.218456 0.135959,-0.04534 0.410256,0.01336 0.410256,0.01336 l 0.425495,-0.02442 0.538851,0.10336 0.244412,-0.379385 z"
       id="path53-3-2-9-1-2-7"
       sodipodi:nodetypes="cccsccccccccc" />
    <path
       style="fill:#0fff50;fill-opacity:1;stroke:#0fff50;stroke-width:1.40427;stroke-linecap:butt;stroke-linejoin:miter;stroke-miterlimit:4;stroke-dasharray:none;stroke-opacity:1"
       d="m 14.083676,23.762472 1.221541,-0.469074 z"
       id="path1431" />
    <path
       style="fill:none;stroke:#0fff50;stroke-width:0.886;stroke-linecap:butt;stroke-linejoin:miter;stroke-miterlimit:4;stroke-dasharray:none;stroke-opacity:1"
       d="m 5.1162588,22.463478 -2.3161327,0.941029 0.9689713,0.873815 1.8500291,-0.479564 z"
       id="path1505" />
    <path
       style="fill:none;stroke:#0fff50;stroke-width:0.79375;stroke-linecap:butt;stroke-linejoin:miter;stroke-miterlimit:4;stroke-dasharray:none;stroke-opacity:1"
       d="m 21.637767,23.228902 c 0.891444,-0.765711 1.07014,-1.110829 1.07014,-1.110829 l 0.447945,1.100541 z"
       id="path1653"
       sodipodi:nodetypes="cccc" />
    <path
       style="fill:none;stroke:#0fff50;stroke-width:0.729;stroke-linecap:butt;stroke-linejoin:miter;stroke-miterlimit:4;stroke-dasharray:none;stroke-opacity:1"
       d="m 2.4113311,5.7118856 c 0,0 -0.9062781,0.263096 -0.6587621,1.0577906 0.2475161,0.7946946 0.2792457,0.7946946 0.2792457,0.7946946 l 0.9034274,0.070718 0.9671344,-0.4337027 z"
       id="path1996" />
    <path
       style="fill:none;stroke:#0fff50;stroke-width:0.629;stroke-linecap:butt;stroke-linejoin:miter;stroke-miterlimit:4;stroke-dasharray:none;stroke-opacity:1"
       d="M 7.2446705,1.2960888 6.8825444,3.1076165 10.251772,2.1760258 Z"
       id="path2129"
       sodipodi:nodetypes="cccc" />
    <path
       style="fill:none;stroke:#0fff50;stroke-width:0.729;stroke-linecap:butt;stroke-linejoin:miter;stroke-miterlimit:4;stroke-dasharray:none;stroke-opacity:1"
       d="m 22.832973,2.7214344 -1.53309,0.5329746 c 0,0 -0.753657,0.9546809 0.137787,1.225619 0.891443,0.2709381 1.466329,-0.3148891 1.466329,-0.3148891 0.277371,0.3494722 0.597901,0.5979541 1.194093,0.2013956 L 24.914244,2.7527749 C 24.21462,2.2599205 23.513452,1.6401108 22.832973,2.7214344 Z"
       id="path2166"
       sodipodi:nodetypes="ccsccccc" />
    <path
       style="fill:#0fff50;stroke:#0fff50;stroke-width:0.79375;stroke-linecap:butt;stroke-linejoin:miter;stroke-opacity:1;stroke-miterlimit:4;stroke-dasharray:none;fill-opacity:1"
       d="m 16.768671,2.2096006 c 0.354204,0.1227659 0.898862,0.2284707 0.898862,0.2284707 z"
       id="path3300" />
  </g>
</svg>
